# xmcd CD database file
#
# Track frame offsets:
#	150
#	16661
#	32214
#	44986
#	67676
#	83731
#	101897
#	145296
#	164711
#	175144
#	192580
#	205627
#	218643
#	232953
#	255139
#	272631
#	291115
#	309812
#
# Disc length: 4480 seconds
#
# Revision: 4
# Processed by: cddbd v1.5.2PL0 Copyright (c) Steve Scherf et al.
# Submitted via: CDex 1.72
#
DISCID=f8117e12
DTITLE=ML!TBo2003 (USA-03-Merlefest Live! The Best of 2003-cty) - Merlefest Live! The Best of 2003
DYEAR=2003
DGENRE=Country
TTITLE0=Before The Last Teardrop Falls - Asleep At The Wheel
TTITLE1=San Antonio Rose - The Whites
TTITLE2=Roll In My Sweet Baby's Arms - Doc Watson
TTITLE3=An American Dream - Nitty Gritty Dirt Band
TTITLE4=John - Mountain Heart
TTITLE5=Go To Sleep Alone - Jimmie Dale Gilmore
TTITLE6=Orange Blossom Special - Vassar's Jam
TTITLE7=Make Me A Pallet On Your Floor - Doc Watson
TTITLE8=How Mountain Girls Can Love - Ricky Skaggs and Mountain Thunder
TTITLE9=Black Diamond Strings - Guy Clark
TTITLE10=Big Sandy River - Hot Rize
TTITLE11=Master's Call - Don Edwards
TTITLE12=A Robin Built A Nest On Daddy's Grave - Ralph Stanley and The Clinch Mountain  Boys
TTITLE13=Main Street Blues - Red Stick Ramblers
TTITLE14=Caught In The Crossfire - Rhonda Vincent and The Rage
TTITLE15=Hard Game Of Love - Doyle Lawson and Quicksilver
TTITLE16=Match Box Blues - Doc Watson
TTITLE17=Conscious Evolution - Donna The Buffalo
EXTD=YEAR: 2003
EXTT0=
EXTT1=
EXTT2=
EXTT3=
EXTT4=
EXTT5=
EXTT6=
EXTT7=
EXTT8=
EXTT9=
EXTT10=
EXTT11=
EXTT12=
EXTT13=
EXTT14=
EXTT15=
EXTT16=
EXTT17=
PLAYORDER=
